<mxfile host="app.diagrams.net" agent="Mozilla/5.0 (Windows NT 10.0; Win64; x64) AppleWebKit/537.36 (KHTML, like Gecko) Chrome/132.0.0.0 Safari/537.36" version="26.0.11">
  <diagram name="페이지-1" id="ZjVxHGShdS5Z9rRz5DaA">
    <mxGraphModel dx="466" dy="698" grid="1" gridSize="10" guides="1" tooltips="1" connect="1" arrows="1" fold="1" page="1" pageScale="1" pageWidth="827" pageHeight="1169" math="0" shadow="0">
      <root>
        <mxCell id="0" />
        <mxCell id="1" parent="0" />
        <mxCell id="OHmPM_Tn8d54Q4Zh0FcS-50" value="" style="rounded=0;whiteSpace=wrap;html=1;strokeColor=none;" vertex="1" parent="1">
          <mxGeometry x="120" y="575" width="340" height="305" as="geometry" />
        </mxCell>
        <mxCell id="x4z7p6w1qJ7BOnY8_iXK-24" value="" style="rounded=0;whiteSpace=wrap;html=1;strokeColor=none;" parent="1" vertex="1">
          <mxGeometry x="310" y="315" width="180" height="195" as="geometry" />
        </mxCell>
        <mxCell id="x4z7p6w1qJ7BOnY8_iXK-23" value="" style="rounded=0;whiteSpace=wrap;html=1;strokeColor=none;" parent="1" vertex="1">
          <mxGeometry x="90" y="315" width="180" height="165" as="geometry" />
        </mxCell>
        <mxCell id="x4z7p6w1qJ7BOnY8_iXK-1" value="1" style="ellipse;whiteSpace=wrap;html=1;aspect=fixed;fontSize=20;" parent="1" vertex="1">
          <mxGeometry x="160" y="325" width="40" height="40" as="geometry" />
        </mxCell>
        <mxCell id="x4z7p6w1qJ7BOnY8_iXK-2" value="-4" style="ellipse;whiteSpace=wrap;html=1;aspect=fixed;fontSize=20;" parent="1" vertex="1">
          <mxGeometry x="140" y="360" width="40" height="40" as="geometry" />
        </mxCell>
        <mxCell id="x4z7p6w1qJ7BOnY8_iXK-3" value="-8" style="ellipse;whiteSpace=wrap;html=1;aspect=fixed;fontSize=20;" parent="1" vertex="1">
          <mxGeometry x="180" y="360" width="40" height="40" as="geometry" />
        </mxCell>
        <mxCell id="x4z7p6w1qJ7BOnY8_iXK-5" value="12" style="ellipse;whiteSpace=wrap;html=1;aspect=fixed;fontSize=20;" parent="1" vertex="1">
          <mxGeometry x="160" y="395" width="40" height="40" as="geometry" />
        </mxCell>
        <mxCell id="x4z7p6w1qJ7BOnY8_iXK-6" value="10" style="ellipse;whiteSpace=wrap;html=1;aspect=fixed;fontSize=20;" parent="1" vertex="1">
          <mxGeometry x="140" y="430" width="40" height="40" as="geometry" />
        </mxCell>
        <mxCell id="x4z7p6w1qJ7BOnY8_iXK-7" value="-3" style="ellipse;whiteSpace=wrap;html=1;aspect=fixed;fontSize=20;" parent="1" vertex="1">
          <mxGeometry x="180" y="430" width="40" height="40" as="geometry" />
        </mxCell>
        <mxCell id="x4z7p6w1qJ7BOnY8_iXK-8" value="6" style="ellipse;whiteSpace=wrap;html=1;aspect=fixed;fontSize=20;" parent="1" vertex="1">
          <mxGeometry x="200" y="395" width="40" height="40" as="geometry" />
        </mxCell>
        <mxCell id="x4z7p6w1qJ7BOnY8_iXK-9" value="-9" style="ellipse;whiteSpace=wrap;html=1;aspect=fixed;fontSize=20;" parent="1" vertex="1">
          <mxGeometry x="120" y="395" width="40" height="40" as="geometry" />
        </mxCell>
        <mxCell id="x4z7p6w1qJ7BOnY8_iXK-10" value="2" style="ellipse;whiteSpace=wrap;html=1;aspect=fixed;fontSize=20;" parent="1" vertex="1">
          <mxGeometry x="220" y="430" width="40" height="40" as="geometry" />
        </mxCell>
        <mxCell id="x4z7p6w1qJ7BOnY8_iXK-11" value="-5" style="ellipse;whiteSpace=wrap;html=1;aspect=fixed;fontSize=20;" parent="1" vertex="1">
          <mxGeometry x="100" y="430" width="40" height="40" as="geometry" />
        </mxCell>
        <mxCell id="x4z7p6w1qJ7BOnY8_iXK-12" value="1" style="ellipse;whiteSpace=wrap;html=1;aspect=fixed;fontSize=20;fillColor=#dae8fc;strokeColor=#6c8ebf;" parent="1" vertex="1">
          <mxGeometry x="380" y="325" width="40" height="40" as="geometry" />
        </mxCell>
        <mxCell id="x4z7p6w1qJ7BOnY8_iXK-13" value="-4" style="ellipse;whiteSpace=wrap;html=1;aspect=fixed;fontSize=20;fillColor=#dae8fc;strokeColor=#6c8ebf;" parent="1" vertex="1">
          <mxGeometry x="360" y="360" width="40" height="40" as="geometry" />
        </mxCell>
        <mxCell id="x4z7p6w1qJ7BOnY8_iXK-14" value="-8" style="ellipse;whiteSpace=wrap;html=1;aspect=fixed;fontSize=20;fillColor=#dae8fc;strokeColor=#6c8ebf;" parent="1" vertex="1">
          <mxGeometry x="400" y="360" width="40" height="40" as="geometry" />
        </mxCell>
        <mxCell id="x4z7p6w1qJ7BOnY8_iXK-15" value="12" style="ellipse;whiteSpace=wrap;html=1;aspect=fixed;fontSize=20;fillColor=#dae8fc;strokeColor=#6c8ebf;" parent="1" vertex="1">
          <mxGeometry x="380" y="395" width="40" height="40" as="geometry" />
        </mxCell>
        <mxCell id="x4z7p6w1qJ7BOnY8_iXK-16" value="10" style="ellipse;whiteSpace=wrap;html=1;aspect=fixed;fontSize=20;fillColor=#dae8fc;strokeColor=#6c8ebf;" parent="1" vertex="1">
          <mxGeometry x="360" y="430" width="40" height="40" as="geometry" />
        </mxCell>
        <mxCell id="x4z7p6w1qJ7BOnY8_iXK-17" value="-3" style="ellipse;whiteSpace=wrap;html=1;aspect=fixed;fontSize=20;" parent="1" vertex="1">
          <mxGeometry x="400" y="430" width="40" height="40" as="geometry" />
        </mxCell>
        <mxCell id="x4z7p6w1qJ7BOnY8_iXK-18" value="6" style="ellipse;whiteSpace=wrap;html=1;aspect=fixed;fontSize=20;fillColor=#dae8fc;strokeColor=#6c8ebf;" parent="1" vertex="1">
          <mxGeometry x="420" y="395" width="40" height="40" as="geometry" />
        </mxCell>
        <mxCell id="x4z7p6w1qJ7BOnY8_iXK-19" value="-9" style="ellipse;whiteSpace=wrap;html=1;aspect=fixed;fontSize=20;fillColor=#dae8fc;strokeColor=#6c8ebf;" parent="1" vertex="1">
          <mxGeometry x="340" y="395" width="40" height="40" as="geometry" />
        </mxCell>
        <mxCell id="x4z7p6w1qJ7BOnY8_iXK-20" value="2" style="ellipse;whiteSpace=wrap;html=1;aspect=fixed;fontSize=20;fillColor=#dae8fc;strokeColor=#6c8ebf;" parent="1" vertex="1">
          <mxGeometry x="440" y="430" width="40" height="40" as="geometry" />
        </mxCell>
        <mxCell id="x4z7p6w1qJ7BOnY8_iXK-21" value="-5" style="ellipse;whiteSpace=wrap;html=1;aspect=fixed;fontSize=20;" parent="1" vertex="1">
          <mxGeometry x="320" y="430" width="40" height="40" as="geometry" />
        </mxCell>
        <mxCell id="x4z7p6w1qJ7BOnY8_iXK-22" value="answer = 10" style="text;html=1;align=center;verticalAlign=middle;whiteSpace=wrap;rounded=0;fontSize=20;" parent="1" vertex="1">
          <mxGeometry x="340" y="480" width="120" height="20" as="geometry" />
        </mxCell>
        <mxCell id="OHmPM_Tn8d54Q4Zh0FcS-1" value="" style="rounded=0;whiteSpace=wrap;html=1;strokeColor=none;" vertex="1" parent="1">
          <mxGeometry x="90" y="70" width="180" height="165" as="geometry" />
        </mxCell>
        <mxCell id="OHmPM_Tn8d54Q4Zh0FcS-2" value="3" style="ellipse;whiteSpace=wrap;html=1;aspect=fixed;fontSize=20;fillColor=#dae8fc;strokeColor=#6c8ebf;" vertex="1" parent="1">
          <mxGeometry x="160" y="80" width="40" height="40" as="geometry" />
        </mxCell>
        <mxCell id="OHmPM_Tn8d54Q4Zh0FcS-3" value="-5" style="ellipse;whiteSpace=wrap;html=1;aspect=fixed;fontSize=20;fillColor=#dae8fc;strokeColor=#6c8ebf;" vertex="1" parent="1">
          <mxGeometry x="140" y="115" width="40" height="40" as="geometry" />
        </mxCell>
        <mxCell id="OHmPM_Tn8d54Q4Zh0FcS-4" value="3" style="ellipse;whiteSpace=wrap;html=1;aspect=fixed;fontSize=20;fillColor=#dae8fc;strokeColor=#6c8ebf;" vertex="1" parent="1">
          <mxGeometry x="180" y="115" width="40" height="40" as="geometry" />
        </mxCell>
        <mxCell id="OHmPM_Tn8d54Q4Zh0FcS-5" value="2" style="ellipse;whiteSpace=wrap;html=1;aspect=fixed;fontSize=20;fillColor=#dae8fc;strokeColor=#6c8ebf;" vertex="1" parent="1">
          <mxGeometry x="160" y="150" width="40" height="40" as="geometry" />
        </mxCell>
        <mxCell id="OHmPM_Tn8d54Q4Zh0FcS-6" value="9" style="ellipse;whiteSpace=wrap;html=1;aspect=fixed;fontSize=20;fillColor=#dae8fc;strokeColor=#6c8ebf;" vertex="1" parent="1">
          <mxGeometry x="140" y="185" width="40" height="40" as="geometry" />
        </mxCell>
        <mxCell id="OHmPM_Tn8d54Q4Zh0FcS-7" value="-2" style="ellipse;whiteSpace=wrap;html=1;aspect=fixed;fontSize=20;" vertex="1" parent="1">
          <mxGeometry x="180" y="185" width="40" height="40" as="geometry" />
        </mxCell>
        <mxCell id="OHmPM_Tn8d54Q4Zh0FcS-8" value="-8" style="ellipse;whiteSpace=wrap;html=1;aspect=fixed;fontSize=20;" vertex="1" parent="1">
          <mxGeometry x="200" y="150" width="40" height="40" as="geometry" />
        </mxCell>
        <mxCell id="OHmPM_Tn8d54Q4Zh0FcS-9" value="-8" style="ellipse;whiteSpace=wrap;html=1;aspect=fixed;fontSize=20;fillColor=#dae8fc;strokeColor=#6c8ebf;" vertex="1" parent="1">
          <mxGeometry x="120" y="150" width="40" height="40" as="geometry" />
        </mxCell>
        <mxCell id="OHmPM_Tn8d54Q4Zh0FcS-10" value="7" style="ellipse;whiteSpace=wrap;html=1;aspect=fixed;fontSize=20;" vertex="1" parent="1">
          <mxGeometry x="220" y="185" width="40" height="40" as="geometry" />
        </mxCell>
        <mxCell id="OHmPM_Tn8d54Q4Zh0FcS-11" value="3" style="ellipse;whiteSpace=wrap;html=1;aspect=fixed;fontSize=20;fillColor=#dae8fc;strokeColor=#6c8ebf;" vertex="1" parent="1">
          <mxGeometry x="100" y="185" width="40" height="40" as="geometry" />
        </mxCell>
        <mxCell id="OHmPM_Tn8d54Q4Zh0FcS-14" value="-" style="ellipse;whiteSpace=wrap;html=1;aspect=fixed;fontSize=20;fillColor=#d5e8d4;strokeColor=#82b366;" vertex="1" parent="1">
          <mxGeometry x="270" y="585" width="40" height="40" as="geometry" />
        </mxCell>
        <mxCell id="OHmPM_Tn8d54Q4Zh0FcS-15" value="-" style="ellipse;whiteSpace=wrap;html=1;aspect=fixed;fontSize=20;fillColor=#d5e8d4;strokeColor=#82b366;" vertex="1" parent="1">
          <mxGeometry x="250" y="620" width="40" height="40" as="geometry" />
        </mxCell>
        <mxCell id="OHmPM_Tn8d54Q4Zh0FcS-16" value="-" style="ellipse;whiteSpace=wrap;html=1;aspect=fixed;fontSize=20;fillColor=#d5e8d4;strokeColor=#82b366;" vertex="1" parent="1">
          <mxGeometry x="290" y="620" width="40" height="40" as="geometry" />
        </mxCell>
        <mxCell id="OHmPM_Tn8d54Q4Zh0FcS-17" value="-" style="ellipse;whiteSpace=wrap;html=1;aspect=fixed;fontSize=20;fillColor=#d5e8d4;strokeColor=#82b366;" vertex="1" parent="1">
          <mxGeometry x="270" y="655" width="40" height="40" as="geometry" />
        </mxCell>
        <mxCell id="OHmPM_Tn8d54Q4Zh0FcS-18" value="-" style="ellipse;whiteSpace=wrap;html=1;aspect=fixed;fontSize=20;fillColor=#d5e8d4;strokeColor=#82b366;" vertex="1" parent="1">
          <mxGeometry x="250" y="690" width="40" height="40" as="geometry" />
        </mxCell>
        <mxCell id="OHmPM_Tn8d54Q4Zh0FcS-19" value="-" style="ellipse;whiteSpace=wrap;html=1;aspect=fixed;fontSize=20;fillColor=#d5e8d4;strokeColor=#82b366;" vertex="1" parent="1">
          <mxGeometry x="290" y="690" width="40" height="40" as="geometry" />
        </mxCell>
        <mxCell id="OHmPM_Tn8d54Q4Zh0FcS-20" value="-" style="ellipse;whiteSpace=wrap;html=1;aspect=fixed;fontSize=20;fillColor=#d5e8d4;strokeColor=#82b366;" vertex="1" parent="1">
          <mxGeometry x="310" y="655" width="40" height="40" as="geometry" />
        </mxCell>
        <mxCell id="OHmPM_Tn8d54Q4Zh0FcS-21" value="-" style="ellipse;whiteSpace=wrap;html=1;aspect=fixed;fontSize=20;fillColor=#d5e8d4;strokeColor=#82b366;" vertex="1" parent="1">
          <mxGeometry x="230" y="655" width="40" height="40" as="geometry" />
        </mxCell>
        <mxCell id="OHmPM_Tn8d54Q4Zh0FcS-22" value="-" style="ellipse;whiteSpace=wrap;html=1;aspect=fixed;fontSize=20;fillColor=#d5e8d4;strokeColor=#82b366;" vertex="1" parent="1">
          <mxGeometry x="330" y="690" width="40" height="40" as="geometry" />
        </mxCell>
        <mxCell id="OHmPM_Tn8d54Q4Zh0FcS-23" value="-" style="ellipse;whiteSpace=wrap;html=1;aspect=fixed;fontSize=20;fillColor=#d5e8d4;strokeColor=#82b366;" vertex="1" parent="1">
          <mxGeometry x="210" y="690" width="40" height="40" as="geometry" />
        </mxCell>
        <mxCell id="OHmPM_Tn8d54Q4Zh0FcS-24" value="-" style="ellipse;whiteSpace=wrap;html=1;aspect=fixed;fontSize=20;fillColor=#d5e8d4;strokeColor=#82b366;" vertex="1" parent="1">
          <mxGeometry x="230" y="725" width="40" height="40" as="geometry" />
        </mxCell>
        <mxCell id="OHmPM_Tn8d54Q4Zh0FcS-25" value="-" style="ellipse;whiteSpace=wrap;html=1;aspect=fixed;fontSize=20;fillColor=#f8cecc;strokeColor=#b85450;" vertex="1" parent="1">
          <mxGeometry x="210" y="760" width="40" height="40" as="geometry" />
        </mxCell>
        <mxCell id="OHmPM_Tn8d54Q4Zh0FcS-26" value="-" style="ellipse;whiteSpace=wrap;html=1;aspect=fixed;fontSize=20;" vertex="1" parent="1">
          <mxGeometry x="250" y="760" width="40" height="40" as="geometry" />
        </mxCell>
        <mxCell id="OHmPM_Tn8d54Q4Zh0FcS-27" value="-" style="ellipse;whiteSpace=wrap;html=1;aspect=fixed;fontSize=20;" vertex="1" parent="1">
          <mxGeometry x="230" y="795" width="40" height="40" as="geometry" />
        </mxCell>
        <mxCell id="OHmPM_Tn8d54Q4Zh0FcS-28" value="-" style="ellipse;whiteSpace=wrap;html=1;aspect=fixed;fontSize=20;" vertex="1" parent="1">
          <mxGeometry x="210" y="830" width="40" height="40" as="geometry" />
        </mxCell>
        <mxCell id="OHmPM_Tn8d54Q4Zh0FcS-29" value="-" style="ellipse;whiteSpace=wrap;html=1;aspect=fixed;fontSize=20;" vertex="1" parent="1">
          <mxGeometry x="250" y="830" width="40" height="40" as="geometry" />
        </mxCell>
        <mxCell id="OHmPM_Tn8d54Q4Zh0FcS-30" value="-" style="ellipse;whiteSpace=wrap;html=1;aspect=fixed;fontSize=20;" vertex="1" parent="1">
          <mxGeometry x="270" y="795" width="40" height="40" as="geometry" />
        </mxCell>
        <mxCell id="OHmPM_Tn8d54Q4Zh0FcS-31" value="-" style="ellipse;whiteSpace=wrap;html=1;aspect=fixed;fontSize=20;" vertex="1" parent="1">
          <mxGeometry x="190" y="795" width="40" height="40" as="geometry" />
        </mxCell>
        <mxCell id="OHmPM_Tn8d54Q4Zh0FcS-32" value="-" style="ellipse;whiteSpace=wrap;html=1;aspect=fixed;fontSize=20;" vertex="1" parent="1">
          <mxGeometry x="290" y="830" width="40" height="40" as="geometry" />
        </mxCell>
        <mxCell id="OHmPM_Tn8d54Q4Zh0FcS-33" value="-" style="ellipse;whiteSpace=wrap;html=1;aspect=fixed;fontSize=20;" vertex="1" parent="1">
          <mxGeometry x="170" y="830" width="40" height="40" as="geometry" />
        </mxCell>
        <mxCell id="OHmPM_Tn8d54Q4Zh0FcS-34" value="-" style="ellipse;whiteSpace=wrap;html=1;aspect=fixed;fontSize=20;fillColor=#d5e8d4;strokeColor=#82b366;" vertex="1" parent="1">
          <mxGeometry x="270" y="725" width="40" height="40" as="geometry" />
        </mxCell>
        <mxCell id="OHmPM_Tn8d54Q4Zh0FcS-35" value="-" style="ellipse;whiteSpace=wrap;html=1;aspect=fixed;fontSize=20;fillColor=#f8cecc;strokeColor=#b85450;" vertex="1" parent="1">
          <mxGeometry x="290" y="760" width="40" height="40" as="geometry" />
        </mxCell>
        <mxCell id="OHmPM_Tn8d54Q4Zh0FcS-36" value="-" style="ellipse;whiteSpace=wrap;html=1;aspect=fixed;fontSize=20;fillColor=#d5e8d4;strokeColor=#82b366;" vertex="1" parent="1">
          <mxGeometry x="310" y="725" width="40" height="40" as="geometry" />
        </mxCell>
        <mxCell id="OHmPM_Tn8d54Q4Zh0FcS-37" value="-" style="ellipse;whiteSpace=wrap;html=1;aspect=fixed;fontSize=20;fillColor=#d5e8d4;strokeColor=#82b366;" vertex="1" parent="1">
          <mxGeometry x="350" y="795" width="40" height="40" as="geometry" />
        </mxCell>
        <mxCell id="OHmPM_Tn8d54Q4Zh0FcS-38" value="-" style="ellipse;whiteSpace=wrap;html=1;aspect=fixed;fontSize=20;fillColor=#d5e8d4;strokeColor=#82b366;" vertex="1" parent="1">
          <mxGeometry x="390" y="795" width="40" height="40" as="geometry" />
        </mxCell>
        <mxCell id="OHmPM_Tn8d54Q4Zh0FcS-39" value="-" style="ellipse;whiteSpace=wrap;html=1;aspect=fixed;fontSize=20;fillColor=#f8cecc;strokeColor=#b85450;" vertex="1" parent="1">
          <mxGeometry x="370" y="830" width="40" height="40" as="geometry" />
        </mxCell>
        <mxCell id="OHmPM_Tn8d54Q4Zh0FcS-40" value="-" style="ellipse;whiteSpace=wrap;html=1;aspect=fixed;fontSize=20;" vertex="1" parent="1">
          <mxGeometry x="310" y="795" width="40" height="40" as="geometry" />
        </mxCell>
        <mxCell id="OHmPM_Tn8d54Q4Zh0FcS-41" value="-" style="ellipse;whiteSpace=wrap;html=1;aspect=fixed;fontSize=20;" vertex="1" parent="1">
          <mxGeometry x="330" y="830" width="40" height="40" as="geometry" />
        </mxCell>
        <mxCell id="OHmPM_Tn8d54Q4Zh0FcS-42" value="-" style="ellipse;whiteSpace=wrap;html=1;aspect=fixed;fontSize=20;fillColor=#d5e8d4;strokeColor=#82b366;" vertex="1" parent="1">
          <mxGeometry x="330" y="760" width="40" height="40" as="geometry" />
        </mxCell>
        <mxCell id="OHmPM_Tn8d54Q4Zh0FcS-43" value="-" style="ellipse;whiteSpace=wrap;html=1;aspect=fixed;fontSize=20;fillColor=#d5e8d4;strokeColor=#82b366;" vertex="1" parent="1">
          <mxGeometry x="370" y="760" width="40" height="40" as="geometry" />
        </mxCell>
        <mxCell id="OHmPM_Tn8d54Q4Zh0FcS-44" value="-" style="ellipse;whiteSpace=wrap;html=1;aspect=fixed;fontSize=20;fillColor=#d5e8d4;strokeColor=#82b366;" vertex="1" parent="1">
          <mxGeometry x="350" y="725" width="40" height="40" as="geometry" />
        </mxCell>
        <mxCell id="OHmPM_Tn8d54Q4Zh0FcS-45" value="-" style="ellipse;whiteSpace=wrap;html=1;aspect=fixed;fontSize=20;fillColor=#d5e8d4;strokeColor=#82b366;" vertex="1" parent="1">
          <mxGeometry x="190" y="725" width="40" height="40" as="geometry" />
        </mxCell>
        <mxCell id="OHmPM_Tn8d54Q4Zh0FcS-46" value="-" style="ellipse;whiteSpace=wrap;html=1;aspect=fixed;fontSize=20;" vertex="1" parent="1">
          <mxGeometry x="170" y="760" width="40" height="40" as="geometry" />
        </mxCell>
        <mxCell id="OHmPM_Tn8d54Q4Zh0FcS-47" value="-" style="ellipse;whiteSpace=wrap;html=1;aspect=fixed;fontSize=20;" vertex="1" parent="1">
          <mxGeometry x="150" y="795" width="40" height="40" as="geometry" />
        </mxCell>
        <mxCell id="OHmPM_Tn8d54Q4Zh0FcS-48" value="-" style="ellipse;whiteSpace=wrap;html=1;aspect=fixed;fontSize=20;" vertex="1" parent="1">
          <mxGeometry x="130" y="830" width="40" height="40" as="geometry" />
        </mxCell>
        <mxCell id="OHmPM_Tn8d54Q4Zh0FcS-49" value="-" style="ellipse;whiteSpace=wrap;html=1;aspect=fixed;fontSize=20;" vertex="1" parent="1">
          <mxGeometry x="410" y="830" width="40" height="40" as="geometry" />
        </mxCell>
        <mxCell id="OHmPM_Tn8d54Q4Zh0FcS-51" value="" style="rounded=0;whiteSpace=wrap;html=1;strokeColor=none;" vertex="1" parent="1">
          <mxGeometry x="70" y="930" width="370" height="325" as="geometry" />
        </mxCell>
        <mxCell id="OHmPM_Tn8d54Q4Zh0FcS-52" value="-" style="ellipse;whiteSpace=wrap;html=1;aspect=fixed;fontSize=20;fillColor=#dae8fc;strokeColor=#6c8ebf;" vertex="1" parent="1">
          <mxGeometry x="240" y="960" width="40" height="40" as="geometry" />
        </mxCell>
        <mxCell id="OHmPM_Tn8d54Q4Zh0FcS-53" value="-" style="ellipse;whiteSpace=wrap;html=1;aspect=fixed;fontSize=20;fillColor=#dae8fc;strokeColor=#6c8ebf;" vertex="1" parent="1">
          <mxGeometry x="220" y="995" width="40" height="40" as="geometry" />
        </mxCell>
        <mxCell id="OHmPM_Tn8d54Q4Zh0FcS-54" value="-" style="ellipse;whiteSpace=wrap;html=1;aspect=fixed;fontSize=20;fillColor=#dae8fc;strokeColor=#6c8ebf;" vertex="1" parent="1">
          <mxGeometry x="260" y="995" width="40" height="40" as="geometry" />
        </mxCell>
        <mxCell id="OHmPM_Tn8d54Q4Zh0FcS-55" value="-" style="ellipse;whiteSpace=wrap;html=1;aspect=fixed;fontSize=20;fillColor=#dae8fc;strokeColor=#6c8ebf;" vertex="1" parent="1">
          <mxGeometry x="240" y="1030" width="40" height="40" as="geometry" />
        </mxCell>
        <mxCell id="OHmPM_Tn8d54Q4Zh0FcS-56" value="-" style="ellipse;whiteSpace=wrap;html=1;aspect=fixed;fontSize=20;fillColor=#dae8fc;strokeColor=#6c8ebf;" vertex="1" parent="1">
          <mxGeometry x="220" y="1065" width="40" height="40" as="geometry" />
        </mxCell>
        <mxCell id="OHmPM_Tn8d54Q4Zh0FcS-57" value="-" style="ellipse;whiteSpace=wrap;html=1;aspect=fixed;fontSize=20;" vertex="1" parent="1">
          <mxGeometry x="260" y="1065" width="40" height="40" as="geometry" />
        </mxCell>
        <mxCell id="OHmPM_Tn8d54Q4Zh0FcS-58" value="-" style="ellipse;whiteSpace=wrap;html=1;aspect=fixed;fontSize=20;" vertex="1" parent="1">
          <mxGeometry x="280" y="1030" width="40" height="40" as="geometry" />
        </mxCell>
        <mxCell id="OHmPM_Tn8d54Q4Zh0FcS-59" value="-" style="ellipse;whiteSpace=wrap;html=1;aspect=fixed;fontSize=20;fillColor=#dae8fc;strokeColor=#6c8ebf;" vertex="1" parent="1">
          <mxGeometry x="200" y="1030" width="40" height="40" as="geometry" />
        </mxCell>
        <mxCell id="OHmPM_Tn8d54Q4Zh0FcS-60" value="-" style="ellipse;whiteSpace=wrap;html=1;aspect=fixed;fontSize=20;" vertex="1" parent="1">
          <mxGeometry x="300" y="1065" width="40" height="40" as="geometry" />
        </mxCell>
        <mxCell id="OHmPM_Tn8d54Q4Zh0FcS-61" value="-" style="ellipse;whiteSpace=wrap;html=1;aspect=fixed;fontSize=20;fillColor=#dae8fc;strokeColor=#6c8ebf;" vertex="1" parent="1">
          <mxGeometry x="180" y="1065" width="40" height="40" as="geometry" />
        </mxCell>
        <mxCell id="OHmPM_Tn8d54Q4Zh0FcS-62" value="-" style="ellipse;whiteSpace=wrap;html=1;aspect=fixed;fontSize=20;fillColor=#f8cecc;strokeColor=#b85450;" vertex="1" parent="1">
          <mxGeometry x="200" y="1100" width="40" height="40" as="geometry" />
        </mxCell>
        <mxCell id="OHmPM_Tn8d54Q4Zh0FcS-63" value="-" style="ellipse;whiteSpace=wrap;html=1;aspect=fixed;fontSize=20;" vertex="1" parent="1">
          <mxGeometry x="180" y="1135" width="40" height="40" as="geometry" />
        </mxCell>
        <mxCell id="OHmPM_Tn8d54Q4Zh0FcS-64" value="-" style="ellipse;whiteSpace=wrap;html=1;aspect=fixed;fontSize=20;" vertex="1" parent="1">
          <mxGeometry x="220" y="1135" width="40" height="40" as="geometry" />
        </mxCell>
        <mxCell id="OHmPM_Tn8d54Q4Zh0FcS-65" value="-" style="ellipse;whiteSpace=wrap;html=1;aspect=fixed;fontSize=20;" vertex="1" parent="1">
          <mxGeometry x="200" y="1170" width="40" height="40" as="geometry" />
        </mxCell>
        <mxCell id="OHmPM_Tn8d54Q4Zh0FcS-66" value="-" style="ellipse;whiteSpace=wrap;html=1;aspect=fixed;fontSize=20;" vertex="1" parent="1">
          <mxGeometry x="180" y="1205" width="40" height="40" as="geometry" />
        </mxCell>
        <mxCell id="OHmPM_Tn8d54Q4Zh0FcS-67" value="-" style="ellipse;whiteSpace=wrap;html=1;aspect=fixed;fontSize=20;" vertex="1" parent="1">
          <mxGeometry x="220" y="1205" width="40" height="40" as="geometry" />
        </mxCell>
        <mxCell id="OHmPM_Tn8d54Q4Zh0FcS-68" value="-" style="ellipse;whiteSpace=wrap;html=1;aspect=fixed;fontSize=20;" vertex="1" parent="1">
          <mxGeometry x="240" y="1170" width="40" height="40" as="geometry" />
        </mxCell>
        <mxCell id="OHmPM_Tn8d54Q4Zh0FcS-69" value="-" style="ellipse;whiteSpace=wrap;html=1;aspect=fixed;fontSize=20;" vertex="1" parent="1">
          <mxGeometry x="160" y="1170" width="40" height="40" as="geometry" />
        </mxCell>
        <mxCell id="OHmPM_Tn8d54Q4Zh0FcS-70" value="-" style="ellipse;whiteSpace=wrap;html=1;aspect=fixed;fontSize=20;" vertex="1" parent="1">
          <mxGeometry x="260" y="1205" width="40" height="40" as="geometry" />
        </mxCell>
        <mxCell id="OHmPM_Tn8d54Q4Zh0FcS-71" value="-" style="ellipse;whiteSpace=wrap;html=1;aspect=fixed;fontSize=20;" vertex="1" parent="1">
          <mxGeometry x="140" y="1205" width="40" height="40" as="geometry" />
        </mxCell>
        <mxCell id="OHmPM_Tn8d54Q4Zh0FcS-72" value="-" style="ellipse;whiteSpace=wrap;html=1;aspect=fixed;fontSize=20;" vertex="1" parent="1">
          <mxGeometry x="240" y="1100" width="40" height="40" as="geometry" />
        </mxCell>
        <mxCell id="OHmPM_Tn8d54Q4Zh0FcS-73" value="-" style="ellipse;whiteSpace=wrap;html=1;aspect=fixed;fontSize=20;" vertex="1" parent="1">
          <mxGeometry x="260" y="1135" width="40" height="40" as="geometry" />
        </mxCell>
        <mxCell id="OHmPM_Tn8d54Q4Zh0FcS-74" value="-" style="ellipse;whiteSpace=wrap;html=1;aspect=fixed;fontSize=20;" vertex="1" parent="1">
          <mxGeometry x="280" y="1100" width="40" height="40" as="geometry" />
        </mxCell>
        <mxCell id="OHmPM_Tn8d54Q4Zh0FcS-75" value="-" style="ellipse;whiteSpace=wrap;html=1;aspect=fixed;fontSize=20;" vertex="1" parent="1">
          <mxGeometry x="320" y="1170" width="40" height="40" as="geometry" />
        </mxCell>
        <mxCell id="OHmPM_Tn8d54Q4Zh0FcS-76" value="-" style="ellipse;whiteSpace=wrap;html=1;aspect=fixed;fontSize=20;" vertex="1" parent="1">
          <mxGeometry x="360" y="1170" width="40" height="40" as="geometry" />
        </mxCell>
        <mxCell id="OHmPM_Tn8d54Q4Zh0FcS-77" value="-" style="ellipse;whiteSpace=wrap;html=1;aspect=fixed;fontSize=20;" vertex="1" parent="1">
          <mxGeometry x="340" y="1205" width="40" height="40" as="geometry" />
        </mxCell>
        <mxCell id="OHmPM_Tn8d54Q4Zh0FcS-78" value="-" style="ellipse;whiteSpace=wrap;html=1;aspect=fixed;fontSize=20;" vertex="1" parent="1">
          <mxGeometry x="280" y="1170" width="40" height="40" as="geometry" />
        </mxCell>
        <mxCell id="OHmPM_Tn8d54Q4Zh0FcS-79" value="-" style="ellipse;whiteSpace=wrap;html=1;aspect=fixed;fontSize=20;" vertex="1" parent="1">
          <mxGeometry x="300" y="1205" width="40" height="40" as="geometry" />
        </mxCell>
        <mxCell id="OHmPM_Tn8d54Q4Zh0FcS-80" value="-" style="ellipse;whiteSpace=wrap;html=1;aspect=fixed;fontSize=20;" vertex="1" parent="1">
          <mxGeometry x="300" y="1135" width="40" height="40" as="geometry" />
        </mxCell>
        <mxCell id="OHmPM_Tn8d54Q4Zh0FcS-81" value="-" style="ellipse;whiteSpace=wrap;html=1;aspect=fixed;fontSize=20;" vertex="1" parent="1">
          <mxGeometry x="340" y="1135" width="40" height="40" as="geometry" />
        </mxCell>
        <mxCell id="OHmPM_Tn8d54Q4Zh0FcS-82" value="-" style="ellipse;whiteSpace=wrap;html=1;aspect=fixed;fontSize=20;" vertex="1" parent="1">
          <mxGeometry x="320" y="1100" width="40" height="40" as="geometry" />
        </mxCell>
        <mxCell id="OHmPM_Tn8d54Q4Zh0FcS-83" value="-" style="ellipse;whiteSpace=wrap;html=1;aspect=fixed;fontSize=20;fillColor=#d5e8d4;strokeColor=#82b366;" vertex="1" parent="1">
          <mxGeometry x="160" y="1100" width="40" height="40" as="geometry" />
        </mxCell>
        <mxCell id="OHmPM_Tn8d54Q4Zh0FcS-84" value="-" style="ellipse;whiteSpace=wrap;html=1;aspect=fixed;fontSize=20;fillColor=#d5e8d4;strokeColor=#82b366;" vertex="1" parent="1">
          <mxGeometry x="140" y="1135" width="40" height="40" as="geometry" />
        </mxCell>
        <mxCell id="OHmPM_Tn8d54Q4Zh0FcS-85" value="-" style="ellipse;whiteSpace=wrap;html=1;aspect=fixed;fontSize=20;fillColor=#d5e8d4;strokeColor=#82b366;" vertex="1" parent="1">
          <mxGeometry x="120" y="1170" width="40" height="40" as="geometry" />
        </mxCell>
        <mxCell id="OHmPM_Tn8d54Q4Zh0FcS-86" value="-" style="ellipse;whiteSpace=wrap;html=1;aspect=fixed;fontSize=20;fillColor=#d5e8d4;strokeColor=#82b366;" vertex="1" parent="1">
          <mxGeometry x="100" y="1205" width="40" height="40" as="geometry" />
        </mxCell>
        <mxCell id="OHmPM_Tn8d54Q4Zh0FcS-87" value="-" style="ellipse;whiteSpace=wrap;html=1;aspect=fixed;fontSize=20;" vertex="1" parent="1">
          <mxGeometry x="380" y="1205" width="40" height="40" as="geometry" />
        </mxCell>
        <mxCell id="OHmPM_Tn8d54Q4Zh0FcS-88" value="&lt;font face=&quot;Courier New&quot;&gt;&lt;i&gt;i = 0&lt;/i&gt;&lt;/font&gt;" style="text;html=1;align=center;verticalAlign=middle;whiteSpace=wrap;rounded=0;" vertex="1" parent="1">
          <mxGeometry x="190" y="965" width="40" height="30" as="geometry" />
        </mxCell>
        <mxCell id="OHmPM_Tn8d54Q4Zh0FcS-89" value="&lt;i&gt;&lt;font face=&quot;Courier New&quot;&gt;1&lt;/font&gt;&lt;/i&gt;" style="text;html=1;align=center;verticalAlign=middle;whiteSpace=wrap;rounded=0;" vertex="1" parent="1">
          <mxGeometry x="190" y="1000" width="30" height="30" as="geometry" />
        </mxCell>
        <mxCell id="OHmPM_Tn8d54Q4Zh0FcS-94" value="&lt;i&gt;&lt;font face=&quot;Courier New&quot;&gt;2&lt;/font&gt;&lt;/i&gt;" style="text;html=1;align=center;verticalAlign=middle;whiteSpace=wrap;rounded=0;" vertex="1" parent="1">
          <mxGeometry x="170" y="1035" width="30" height="30" as="geometry" />
        </mxCell>
        <mxCell id="OHmPM_Tn8d54Q4Zh0FcS-95" value="&lt;i&gt;&lt;font face=&quot;Courier New&quot;&gt;3&lt;/font&gt;&lt;/i&gt;" style="text;html=1;align=center;verticalAlign=middle;whiteSpace=wrap;rounded=0;" vertex="1" parent="1">
          <mxGeometry x="150" y="1070" width="30" height="30" as="geometry" />
        </mxCell>
        <mxCell id="OHmPM_Tn8d54Q4Zh0FcS-96" value="&lt;font face=&quot;Courier New&quot;&gt;&lt;i&gt;4&lt;/i&gt;&lt;/font&gt;" style="text;html=1;align=center;verticalAlign=middle;whiteSpace=wrap;rounded=0;" vertex="1" parent="1">
          <mxGeometry x="130" y="1105" width="30" height="30" as="geometry" />
        </mxCell>
        <mxCell id="OHmPM_Tn8d54Q4Zh0FcS-97" value="&lt;i&gt;&lt;font face=&quot;Courier New&quot;&gt;5&lt;/font&gt;&lt;/i&gt;" style="text;html=1;align=center;verticalAlign=middle;whiteSpace=wrap;rounded=0;" vertex="1" parent="1">
          <mxGeometry x="110" y="1140" width="30" height="30" as="geometry" />
        </mxCell>
        <mxCell id="OHmPM_Tn8d54Q4Zh0FcS-98" value="&lt;i&gt;&lt;font face=&quot;Courier New&quot;&gt;6&lt;/font&gt;&lt;/i&gt;" style="text;html=1;align=center;verticalAlign=middle;whiteSpace=wrap;rounded=0;" vertex="1" parent="1">
          <mxGeometry x="90" y="1175" width="30" height="30" as="geometry" />
        </mxCell>
        <mxCell id="OHmPM_Tn8d54Q4Zh0FcS-100" value="&lt;i&gt;&lt;font face=&quot;Courier New&quot;&gt;7&lt;/font&gt;&lt;/i&gt;" style="text;html=1;align=center;verticalAlign=middle;whiteSpace=wrap;rounded=0;" vertex="1" parent="1">
          <mxGeometry x="70" y="1210" width="30" height="30" as="geometry" />
        </mxCell>
        <mxCell id="OHmPM_Tn8d54Q4Zh0FcS-103" value="&lt;font face=&quot;Courier New&quot;&gt;&lt;i&gt;j = 0&lt;/i&gt;&lt;/font&gt;" style="text;html=1;align=center;verticalAlign=middle;whiteSpace=wrap;rounded=0;" vertex="1" parent="1">
          <mxGeometry x="250" y="930" width="40" height="30" as="geometry" />
        </mxCell>
        <mxCell id="OHmPM_Tn8d54Q4Zh0FcS-104" value="&lt;font face=&quot;Courier New&quot;&gt;&lt;i&gt;1&lt;/i&gt;&lt;/font&gt;" style="text;html=1;align=center;verticalAlign=middle;whiteSpace=wrap;rounded=0;" vertex="1" parent="1">
          <mxGeometry x="280" y="965" width="30" height="30" as="geometry" />
        </mxCell>
        <mxCell id="OHmPM_Tn8d54Q4Zh0FcS-105" value="&lt;font face=&quot;Courier New&quot;&gt;&lt;i&gt;2&lt;/i&gt;&lt;/font&gt;" style="text;html=1;align=center;verticalAlign=middle;whiteSpace=wrap;rounded=0;" vertex="1" parent="1">
          <mxGeometry x="300" y="1000" width="30" height="30" as="geometry" />
        </mxCell>
        <mxCell id="OHmPM_Tn8d54Q4Zh0FcS-106" value="&lt;font face=&quot;Courier New&quot;&gt;&lt;i&gt;3&lt;/i&gt;&lt;/font&gt;" style="text;html=1;align=center;verticalAlign=middle;whiteSpace=wrap;rounded=0;" vertex="1" parent="1">
          <mxGeometry x="320" y="1035" width="30" height="30" as="geometry" />
        </mxCell>
        <mxCell id="OHmPM_Tn8d54Q4Zh0FcS-107" value="&lt;font face=&quot;Courier New&quot;&gt;&lt;i&gt;4&lt;/i&gt;&lt;/font&gt;" style="text;html=1;align=center;verticalAlign=middle;whiteSpace=wrap;rounded=0;" vertex="1" parent="1">
          <mxGeometry x="340" y="1070" width="30" height="30" as="geometry" />
        </mxCell>
        <mxCell id="OHmPM_Tn8d54Q4Zh0FcS-108" value="&lt;font face=&quot;Courier New&quot;&gt;&lt;i&gt;5&lt;/i&gt;&lt;/font&gt;" style="text;html=1;align=center;verticalAlign=middle;whiteSpace=wrap;rounded=0;" vertex="1" parent="1">
          <mxGeometry x="360" y="1105" width="30" height="30" as="geometry" />
        </mxCell>
        <mxCell id="OHmPM_Tn8d54Q4Zh0FcS-109" value="&lt;font face=&quot;Courier New&quot;&gt;&lt;i&gt;6&lt;/i&gt;&lt;/font&gt;" style="text;html=1;align=center;verticalAlign=middle;whiteSpace=wrap;rounded=0;" vertex="1" parent="1">
          <mxGeometry x="380" y="1140" width="30" height="30" as="geometry" />
        </mxCell>
        <mxCell id="OHmPM_Tn8d54Q4Zh0FcS-110" value="&lt;font face=&quot;Courier New&quot;&gt;&lt;i&gt;7&lt;/i&gt;&lt;/font&gt;" style="text;html=1;align=center;verticalAlign=middle;whiteSpace=wrap;rounded=0;" vertex="1" parent="1">
          <mxGeometry x="399" y="1175" width="30" height="30" as="geometry" />
        </mxCell>
      </root>
    </mxGraphModel>
  </diagram>
</mxfile>
